<svg fill="#479CF7" xmlns="http://www.w3.org/2000/svg" xmlns:xlink="http://www.w3.org/1999/xlink" version="1.1" x="0px" y="0px" viewBox="206 206 100 125" enable-background="new 206 206 100 100" xml:space="preserve"><g><path d="M240.583,251.556l14.283,14.285c0.303,0.303,0.705,0.47,1.134,0.47s0.831-0.167,1.134-0.47l14.283-14.285   c0.561-0.561,1.098-1.162,1.596-1.785c3.132-3.901,4.788-8.614,4.788-13.63c0-12.021-9.78-21.801-21.801-21.801   s-21.801,9.78-21.801,21.801c0,5.016,1.656,9.729,4.786,13.628C239.485,250.394,240.022,250.995,240.583,251.556z M256,226.024   c5.579,0,10.117,4.537,10.117,10.117c0,5.579-4.537,10.117-10.117,10.117s-10.117-4.537-10.117-10.117   C245.883,230.562,250.421,226.024,256,226.024z"/><path d="M279.588,234.15c0.054,0.657,0.084,1.319,0.084,1.991c0,5.368-1.847,10.625-5.198,14.8   c-0.541,0.675-1.124,1.328-1.734,1.938l-14.283,14.285c-0.657,0.657-1.529,1.018-2.457,1.018c-0.926,0-1.8-0.361-2.455-1.016   l-14.285-14.287c-0.612-0.61-1.196-1.263-1.734-1.94c-3.351-4.172-5.198-9.43-5.198-14.798c0-0.554,0.021-1.102,0.058-1.645   c-5.929,1.381-10.266,6.745-10.266,12.942c0,0,0,0,0,0.002v50.22l15.269-15.269c0.045-0.043,0.092-0.082,0.144-0.116   c0.022-0.015,0.047-0.026,0.069-0.039c0.03-0.017,0.06-0.034,0.092-0.047c0.03-0.013,0.062-0.021,0.094-0.03   c0.026-0.008,0.052-0.019,0.08-0.024c0.06-0.011,0.122-0.019,0.183-0.019h38.541c3.663,0,6.986-1.489,9.392-3.895   c2.406-2.406,3.895-5.729,3.895-9.392V234.15H279.588z"/></g></svg>